<svg xmlns="http://www.w3.org/2000/svg" version="1.1" xmlns:xlink="http://www.w3.org/1999/xlink" xmlns:svgjs="http://svgjs.dev/svgjs" width="2000" height="666" viewBox="0 0 2000 666"><g transform="matrix(1,0,0,1,-1.2118274636568458,-0.008547502172632448)"><svg viewBox="0 0 396 132" data-background-color="#ffffff" preserveAspectRatio="xMidYMid meet" height="666" width="2000" xmlns="http://www.w3.org/2000/svg" xmlns:xlink="http://www.w3.org/1999/xlink"><g id="tight-bounds" transform="matrix(1,0,0,1,0.23994183780405365,0.0016940995297147765)"><svg viewBox="0 0 395.52 131.9964954765487" height="131.9964954765487" width="395.52"><g><svg viewBox="0 0 676.0509239023067 225.6178011700733" height="131.9964954765487" width="395.52"><g transform="matrix(1,0,0,1,0,54.65694662504763)"><svg viewBox="0 0 395.52 116.30390791997804" height="116.30390791997804" width="395.52"><g id="textblocktransform"><svg viewBox="0 0 395.52 116.30390791997804" height="116.30390791997804" width="395.52" id="textblock"><g><svg viewBox="0 0 395.52 116.30390791997804" height="116.30390791997804" width="395.52"><g transform="matrix(1,0,0,1,0,0)"><svg width="395.52" viewBox="2.1499999999999995 -40.5 183.89 53.65" height="116.30390791997804" data-palette-color="#00A8E8"><g class="wordmark-text-0" data-fill-palette-color="primary" id="text-0"><path d="M2.3 0.1L2.3 0.1Q2-0.8 2.3-1.7L2.3-1.7 6.45-2.3Q6.65-4.2 6.65-8.15L6.65-8.15 6.65-37.6 2.6-38.1Q2.4-38.85 2.6-39.95L2.6-39.95Q3.35-39.9 4.95-39.9L4.95-39.9Q8.15-39.9 13.23-40.18 18.3-40.45 19.05-40.45L19.05-40.45Q28.85-40.45 33.9-35.15 38.95-29.85 38.95-20.9L38.95-20.9Q38.95-11.8 34.2-5.8 29.45 0.2 20.9 0.2L20.9 0.2Q18.05 0.2 13.35 0.13 8.65 0.05 6.6 0.05L6.6 0.05Q3.7 0.05 2.3 0.1ZM19-2.2L19-2.2Q33.1-2.2 33.1-20.6L33.1-20.6Q33.1-28.55 29.43-33.15 25.75-37.75 18.85-38.05L18.85-38.05Q18.25-38.1 17-38.1L17-38.1Q14.35-38.1 12.2-37.7L12.2-37.7Q12-35.8 12-31.65L12-31.65 12-2.35Q12.6-2.35 14.88-2.27 17.15-2.2 19-2.2ZM52.15-18.6L52.15-18.6 52.15-2.55 56.2-1.8Q56.25-1.55 56.27-1.35 56.3-1.15 56.3-0.9L56.3-0.9Q56.3-0.65 56.27-0.38 56.25-0.1 56.2 0.2L56.2 0.2Q53.05 0.05 49.75 0.05L49.75 0.05Q48.6 0.05 46.97 0.08 45.35 0.1 43.25 0.15L43.25 0.15Q43.1-0.3 43.1-0.8L43.1-0.8Q43.1-1.25 43.25-1.8L43.25-1.8 47.2-2.35Q47.3-3.75 47.35-5.33 47.4-6.9 47.4-8.7L47.4-8.7 47.4-19.35Q47.4-22.65 47.25-24.25L47.25-24.25 43.3-24.75Q43.2-25 43.2-25.6L43.2-25.6Q43.2-25.85 43.2-26.1 43.2-26.35 43.3-26.65L43.3-26.65Q46.7-26.85 51.9-27.7L51.9-27.7Q52.35-27.2 52.4-26.7L52.4-26.7Q52.15-25.3 52.15-18.6ZM44.85-36.45L44.85-36.45Q44.75-36.7 44.75-36.98 44.75-37.25 44.75-37.5L44.75-37.5Q44.75-38.85 45.87-39.68 47-40.5 48.65-40.5L48.65-40.5Q50.2-40.5 51.17-39.58 52.15-38.65 52.15-37.05L52.15-37.05Q52.15-35.75 51.02-34.95 49.9-34.15 48.15-34.15L48.15-34.15Q46.95-34.15 46.02-34.75 45.1-35.35 44.85-36.45ZM63.25 0.55L63.25 0.55Q63.7 0.75 64 1.4L64 1.4Q62.35 2.75 62.35 5.45L62.35 5.45Q62.35 7.85 64.55 9.3 66.75 10.75 70.25 10.75L70.25 10.75Q73.84 10.75 76.25 9.43 78.65 8.1 78.65 5.7L78.65 5.7Q78.65 3.1 77.7 1.88 76.75 0.65 73.9 0.4L73.9 0.4 64.55-0.45Q63-0.65 61.97-2.08 60.95-3.5 60.95-4.85L60.95-4.85 64.3-10.4Q62-11.7 60.82-13.85 59.65-16 59.65-18.25L59.65-18.25Q59.65-22.5 62.8-25.1 65.95-27.7 70.05-27.7L70.05-27.7Q74-27.7 77-25.6L77-25.6Q77.25-32.45 82.09-32.7L82.09-32.7Q83.4-32.4 83.4-30.55L83.4-30.55Q83.4-29.55 83.2-28.35L83.2-28.35Q81.25-28.2 80-27.08 78.75-25.95 78.2-24.5L78.2-24.5Q80.7-22 80.7-18.25L80.7-18.25Q80.7-14.3 77.5-11.68 74.3-9.05 70.05-9.05L70.05-9.05Q67.8-9.05 66-9.65L66-9.65 64.3-5.2 76.75-3.95Q79.65-3.6 81.17-1.83 82.7-0.05 82.7 2.8L82.7 2.8Q82.7 7.8 79.09 10.48 75.5 13.15 69.34 13.15L69.34 13.15Q64.25 13.15 61.4 11.3 58.55 9.45 58.55 6.35L58.55 6.35Q58.55 4.25 59.9 2.63 61.25 1 63.25 0.55ZM64.15-18.25L64.15-18.25Q64.15-15.35 65.77-13.3 67.4-11.25 70.09-11.25L70.09-11.25Q72.75-11.25 74.45-13.28 76.15-15.3 76.15-18.25L76.15-18.25Q76.15-21.45 74.47-23.58 72.8-25.7 70.09-25.7L70.09-25.7Q67.55-25.7 65.84-23.55 64.15-21.4 64.15-18.25ZM93.84-18.6L93.84-18.6 93.84-2.55 97.89-1.8Q97.94-1.55 97.97-1.35 97.99-1.15 97.99-0.9L97.99-0.9Q97.99-0.65 97.97-0.38 97.94-0.1 97.89 0.2L97.89 0.2Q94.74 0.05 91.44 0.05L91.44 0.05Q90.29 0.05 88.67 0.08 87.04 0.1 84.94 0.15L84.94 0.15Q84.79-0.3 84.79-0.8L84.79-0.8Q84.79-1.25 84.94-1.8L84.94-1.8 88.89-2.35Q88.99-3.75 89.04-5.33 89.09-6.9 89.09-8.7L89.09-8.7 89.09-19.35Q89.09-22.65 88.94-24.25L88.94-24.25 84.99-24.75Q84.89-25 84.89-25.6L84.89-25.6Q84.89-25.85 84.89-26.1 84.89-26.35 84.99-26.65L84.99-26.65Q88.39-26.85 93.59-27.7L93.59-27.7Q94.04-27.2 94.09-26.7L94.09-26.7Q93.84-25.3 93.84-18.6ZM86.54-36.45L86.54-36.45Q86.44-36.7 86.44-36.98 86.44-37.25 86.44-37.5L86.44-37.5Q86.44-38.85 87.57-39.68 88.69-40.5 90.34-40.5L90.34-40.5Q91.89-40.5 92.87-39.58 93.84-38.65 93.84-37.05L93.84-37.05Q93.84-35.75 92.72-34.95 91.59-34.15 89.84-34.15L89.84-34.15Q88.64-34.15 87.72-34.75 86.79-35.35 86.54-36.45ZM131.14-12.7L131.14-12.7 131.14-37.6 127.09-38.1 127.09-39.95Q129.84-39.75 132.14-39.75L132.14-39.75Q134.04-39.75 137.24-39.9L137.24-39.9 137.24-38.1 134.09-37.5Q133.89-35.6 133.89-31.65L133.89-31.65 133.89-13Q133.69-5.9 130.54-2.45 127.39 1 119.49 1L119.49 1Q104.59 1 104.59-12.55L104.59-12.55 104.59-37.6 100.54-38.1Q100.34-38.85 100.54-39.95L100.54-39.95Q103.29-39.75 107.39-39.75L107.39-39.75Q111.04-39.75 114.29-39.9L114.29-39.9Q114.59-39 114.29-38.1L114.29-38.1 110.14-37.5Q109.94-35.6 109.94-31.65L109.94-31.65 109.94-12.55Q109.94-6.95 112.54-4.58 115.14-2.2 121.14-2.2L121.14-2.2Q126.79-2.2 128.97-4.67 131.14-7.15 131.14-12.7ZM161.94-8.7L161.94-17.85Q161.94-21.7 160.91-23.25 159.89-24.8 157.49-24.8L157.49-24.8Q153.79-24.8 150.04-19.25L150.04-19.25 150.04-2.55 154.09-1.8Q154.29-1 154.09 0.2L154.09 0.2Q150.94 0.05 147.64 0.05L147.64 0.05Q145.34 0.05 141.14 0.15L141.14 0.15Q140.84-0.8 141.14-1.8L141.14-1.8 145.09-2.35Q145.29-5.1 145.29-8.7L145.29-8.7 145.29-22.4Q145.29-23.4 145.14-24.25L145.14-24.25 141.19-24.75Q140.99-25.5 141.19-26.65L141.19-26.65Q144.64-26.9 149.79-27.7L149.79-27.7Q150.24-27.2 150.29-26.7L150.29-26.7Q150.04-25.4 150.04-22.25L150.04-22.25Q153.99-27.7 158.94-27.7L158.94-27.7Q166.69-27.7 166.69-20.35L166.69-20.35 166.69-2.55 170.74-1.8Q170.94-1 170.74 0.2L170.74 0.2Q167.59 0.05 164.29 0.05L164.29 0.05Q161.99 0.05 157.79 0.15L157.79 0.15Q157.49-0.8 157.79-1.8L157.79-1.8 161.74-2.35Q161.94-5.1 161.94-8.7L161.94-8.7ZM181.89-18.6L181.89-18.6 181.89-2.55 185.94-1.8Q185.99-1.55 186.01-1.35 186.04-1.15 186.04-0.9L186.04-0.9Q186.04-0.65 186.01-0.38 185.99-0.1 185.94 0.2L185.94 0.2Q182.79 0.05 179.49 0.05L179.49 0.05Q178.34 0.05 176.71 0.08 175.09 0.1 172.99 0.15L172.99 0.15Q172.84-0.3 172.84-0.8L172.84-0.8Q172.84-1.25 172.99-1.8L172.99-1.8 176.94-2.35Q177.04-3.75 177.09-5.33 177.14-6.9 177.14-8.7L177.14-8.7 177.14-19.35Q177.14-22.65 176.99-24.25L176.99-24.25 173.04-24.75Q172.94-25 172.94-25.6L172.94-25.6Q172.94-25.85 172.94-26.1 172.94-26.35 173.04-26.65L173.04-26.65Q176.44-26.85 181.64-27.7L181.64-27.7Q182.09-27.2 182.14-26.7L182.14-26.7Q181.89-25.3 181.89-18.6ZM174.59-36.45L174.59-36.45Q174.49-36.7 174.49-36.98 174.49-37.25 174.49-37.5L174.49-37.5Q174.49-38.85 175.61-39.68 176.74-40.5 178.39-40.5L178.39-40.5Q179.94-40.5 180.91-39.58 181.89-38.65 181.89-37.05L181.89-37.05Q181.89-35.75 180.76-34.95 179.64-34.15 177.89-34.15L177.89-34.15Q176.69-34.15 175.76-34.75 174.84-35.35 174.59-36.45Z" fill="#00A8E8" data-fill-palette-color="primary"></path></g></svg></g></svg></g></svg></g></svg></g><g transform="matrix(1,0,0,1,450.43312273223347,0)"><svg viewBox="0 0 225.6178011700733 225.6178011700733" height="225.6178011700733" width="225.6178011700733"><g><svg></svg></g><g id="icon-0"><svg viewBox="0 0 225.6178011700733 225.6178011700733" height="225.6178011700733" width="225.6178011700733"><g><path d="M0 112.809c0-62.303 50.506-112.809 112.809-112.809 62.303 0 112.809 50.506 112.809 112.809 0 62.303-50.506 112.809-112.809 112.809-62.303 0-112.809-50.506-112.809-112.809zM112.809 215.129c56.51 0 102.32-45.81 102.32-102.32 0-56.51-45.81-102.32-102.32-102.321-56.51 0-102.32 45.81-102.321 102.321 0 56.51 45.81 102.32 102.321 102.32z" data-fill-palette-color="accent" fill="#00A8E8" stroke="transparent"></path></g><g transform="matrix(1,0,0,1,59.16961628280373,49.099338931568134)"><svg viewBox="0 0 107.27856860446585 127.41912330693704" height="127.41912330693704" width="107.27856860446585"><g><svg xmlns="http://www.w3.org/2000/svg" xmlns:xlink="http://www.w3.org/1999/xlink" version="1.1" x="0" y="0" viewBox="22.347 17.155999999999995 55.305 65.688" enable-background="new 0 0 100 100" xml:space="preserve" height="127.41912330693704" width="107.27856860446585" class="icon-cg-0" data-fill-palette-color="accent" id="cg-0"><g fill="#00A8E8" data-fill-palette-color="accent"><g fill="#00A8E8" data-fill-palette-color="accent"><g fill="#00A8E8" data-fill-palette-color="accent"><rect x="42.208" y="34.031" width="29.081" height="12.75" fill="#00A8E8" data-fill-palette-color="accent"></rect><path d="M76.152 27.658H29.778c-0.828 0-1.5 0.672-1.5 1.5v9.555c0.908-0.492 1.923-0.813 3-0.917v-7.138h43.375v35.184H41.008v3h35.144c0.83 0 1.5-0.671 1.5-1.5V29.158C77.652 28.33 76.982 27.658 76.152 27.658z" fill="#00A8E8" data-fill-palette-color="accent"></path></g><g fill="#00A8E8" data-fill-palette-color="accent"><circle cx="32.055" cy="45.701" r="5.9" fill="#00A8E8" data-fill-palette-color="accent"></circle><path d="M56.695 54.086h-0.494l2.602-4.042c0.299-0.464 0.166-1.083-0.299-1.382-0.463-0.299-1.084-0.166-1.383 0.299l-3.299 5.125H24.574c-1.23 0-2.227 0.997-2.227 2.227v16.029h16.661V59.139h17.687c1.395 0 2.525-1.131 2.525-2.527C59.221 55.217 58.09 54.086 56.695 54.086z" fill="#00A8E8" data-fill-palette-color="accent"></path></g></g></g><g display="none" fill="#00A8E8" data-fill-palette-color="accent"><g display="inline" fill="#00A8E8" data-fill-palette-color="accent"><circle cx="50" cy="23.24" r="6.1" fill="#00A8E8" data-fill-palette-color="accent"></circle><path d="M58.323 30.396H41.308c-5.021 0-5.353 4.733-5.353 4.733v12.026h9.026V59.87H55.26V47.156h8.785V35.13C64.045 35.13 63.345 30.396 58.323 30.396z" fill="#00A8E8" data-fill-palette-color="accent"></path></g><g display="inline" fill="#00A8E8" data-fill-palette-color="accent"><path d="M35.943 49.555h7.319v12.774h13.475V49.555h7.32v33.289h-7.32V68.484H43.263v14.359h-7.319V49.555z" fill="#00A8E8" data-fill-palette-color="accent"></path></g></g></svg></g></svg></g></svg></g></svg></g></svg></g><defs></defs></svg><rect width="395.52" height="131.9964954765487" fill="none" stroke="none" visibility="hidden"></rect></g></svg></g></svg>